<svg width="32" height="32" viewBox="0 0 32 32" fill="none" xmlns="http://www.w3.org/2000/svg">
<g clip-path="url(#clip0_22_72)">
<path d="M30.2337 0H1.76625C1.29781 0 0.848559 0.186087 0.517323 0.517323C0.186087 0.848559 0 1.29781 0 1.76625L0 30.2337C0 30.7022 0.186087 31.1514 0.517323 31.4827C0.848559 31.8139 1.29781 32 1.76625 32H17.0938V19.625H12.9375V14.7812H17.0938V11.2188C17.0938 7.08563 19.6181 4.835 23.3062 4.835C25.0719 4.835 26.59 4.96625 27.0312 5.0225V9.34188H24.4875C22.4812 9.34188 22.0925 10.295 22.0925 11.6944V14.7812H26.8888L26.2638 19.625H22.0925V32H30.2325C30.4646 32.0002 30.6944 31.9546 30.9088 31.8659C31.1232 31.7772 31.3181 31.6471 31.4822 31.4831C31.6464 31.3191 31.7766 31.1243 31.8654 30.91C31.9543 30.6956 32 30.4658 32 30.2337V1.76625C32 1.29781 31.8139 0.848559 31.4827 0.517323C31.1514 0.186087 30.7022 0 30.2337 0Z" fill="white"/>
</g>
<defs>
<clipPath id="clip0_22_72">
<rect width="32" height="32" fill="white"/>
</clipPath>
</defs>
</svg>
