<svg width="32" height="32" viewBox="0 0 32 32" fill="none" xmlns="http://www.w3.org/2000/svg">
<path d="M11.3189 29.5699C8.74097 29.1038 6.30378 27.3127 5.22086 25.0885C4.46897 23.544 4.17992 21.9111 4.36559 20.2572C4.70968 17.1916 6.2966 14.6812 8.76344 13.2997C10.064 12.5715 11.9273 12.2096 13.3143 12.4158L14.1164 12.5347L14.1166 14.9861L14.1168 17.4375L13.3579 17.4055C11.5294 17.3301 10.1672 18.1132 9.46355 19.6419C9.12687 20.3733 9.04159 21.6732 9.27841 22.465C9.57036 23.4416 10.4337 24.3237 11.476 24.7107C11.8311 24.8432 12.2153 24.8935 12.8738 24.8912C13.6935 24.8903 13.844 24.8615 14.4204 24.5888C15.2548 24.1943 15.8636 23.6218 16.2214 22.8949C16.4534 22.4238 16.528 22.1109 16.6006 21.3061C16.6502 20.7548 16.6922 16.2496 16.694 11.2947L16.6963 2.28552H18.2591C19.1186 2.28552 20.151 2.31295 20.5532 2.34724L21.2845 2.40895V2.77101C21.2845 3.64255 21.7942 5.31432 22.3167 6.15661C22.4472 6.36689 22.903 6.88301 23.3297 7.30358C24.1541 8.11615 24.8495 8.52689 25.9206 8.83318C26.236 8.92461 26.5688 9.03661 26.6601 9.08232C26.7513 9.12804 26.9234 9.16918 27.0424 9.16918C27.1615 9.17009 27.3556 9.19661 27.4739 9.22861L27.6889 9.28575V11.5596V13.8334L27.2827 13.79C25.0859 13.553 23.3301 12.9669 21.9289 12.0026C21.2324 11.5235 21.1722 11.4951 21.2382 11.6775C21.2619 11.7438 21.245 14.2487 21.2007 17.2455C21.1239 22.4405 21.1102 22.7294 20.9085 23.4565C20.1336 26.2501 18.3944 28.3244 16.1044 29.1863C14.7041 29.7134 12.9126 29.8581 11.3189 29.5699Z" fill="white"/>
</svg>
