<svg width="33" height="33" viewBox="0 0 33 33" fill="none" xmlns="http://www.w3.org/2000/svg">
<g clip-path="url(#clip0_22_95)">
<path d="M25.5693 4.89337H6.86132C3.19084 4.89337 0.215332 7.86888 0.215332 11.5394V20.8914C0.215332 24.5619 3.19084 27.5374 6.86132 27.5374H25.5693C29.2398 27.5374 32.2153 24.5619 32.2153 20.8914V11.5394C32.2153 7.86888 29.2398 4.89337 25.5693 4.89337ZM21.0747 16.6704L12.3244 20.8438C12.0912 20.955 11.8219 20.785 11.8219 20.5267V11.9191C11.8219 11.6571 12.0983 11.4873 12.3319 11.6057L21.0823 16.04C21.3424 16.1718 21.3379 16.5449 21.0747 16.6704Z" fill="white"/>
</g>
<defs>
<clipPath id="clip0_22_95">
<rect width="32" height="32" fill="white" transform="translate(0.215332 0.215332)"/>
</clipPath>
</defs>
</svg>
