<svg width="105" height="62" viewBox="0 0 105 62" fill="none" xmlns="http://www.w3.org/2000/svg">
<path d="M69.8315 26.9225C69.1325 27.3884 68.084 27.738 66.8024 27.738C64.8219 27.738 62.9579 27.5049 61.094 26.9225C60.6281 26.806 60.2786 26.6895 60.0455 26.6895C59.6959 26.6895 59.5796 26.9225 59.5796 27.3884V28.5535C59.5796 28.903 59.6961 29.1359 59.8126 29.3689C59.9292 29.4855 60.1622 29.7185 60.5116 29.8349C62.3756 30.6503 64.4725 30.9999 66.8026 30.9999C69.249 30.9999 71.113 30.4175 72.6275 29.2524C74.1419 28.0874 74.8409 26.5729 74.8409 24.5924C74.8409 23.1945 74.4913 22.146 73.7924 21.2139C73.0934 20.3985 71.9284 19.583 70.2974 19.0005L67.0355 17.719C65.7539 17.2531 64.8221 16.787 64.4725 16.321C64.0066 15.8551 63.7735 15.389 63.7735 14.5736C63.7735 12.8261 65.0551 11.8941 67.7344 11.8941C69.2489 11.8941 70.7635 12.1271 72.1614 12.593C72.6273 12.7096 72.9769 12.8261 73.0934 12.8261C73.443 12.8261 73.6758 12.593 73.6758 12.1271V10.9621C73.6758 10.6125 73.5593 10.3796 73.4428 10.1466C73.3263 9.91354 73.0932 9.79702 72.7438 9.68066C70.9964 9.09822 69.2489 8.74866 67.5014 8.74866C65.288 8.74866 63.424 9.3311 62.0259 10.3796C60.6279 11.4281 59.9288 12.9426 59.9288 14.6901C59.9288 17.3696 61.4433 19.3501 64.4723 20.515L67.9673 21.7966C69.1323 22.2625 69.8313 22.612 70.2972 23.0781C70.7631 23.544 70.8797 24.0101 70.8797 24.7091C70.88 25.6409 70.5304 26.4564 69.8315 26.9225Z" fill="url(#paint0_linear_1_166)"/>
<path d="M51.541 10.1467V25.641C49.5605 26.9226 47.5801 27.6215 45.5996 27.6215C44.318 27.6215 43.3862 27.272 42.8035 26.573C42.2209 25.874 41.9881 24.8255 41.9881 23.3111V10.1467C41.9881 9.56422 41.755 9.33118 41.1726 9.33118H38.7261C38.1437 9.33118 37.9106 9.56422 37.9106 10.1467V24.5925C37.9106 26.573 38.3766 28.204 39.4251 29.2525C40.4736 30.301 41.9881 30.8835 43.9686 30.8835C46.6481 30.8835 49.3276 29.9515 51.8905 28.0875L52.1236 29.4854C52.1236 29.8349 52.2401 29.9513 52.4732 30.0678C52.5897 30.1843 52.8227 30.1843 53.1721 30.1843H54.9196C55.502 30.1843 55.7351 29.9513 55.7351 29.3689V10.1467C55.7351 9.56422 55.502 9.33118 54.9196 9.33118H52.4732C51.774 9.33118 51.541 9.68058 51.541 10.1467Z" fill="url(#paint1_linear_1_166)"/>
<path d="M29.4061 30.3009H31.8525C32.4349 30.3009 32.668 30.0679 32.668 29.4855V14.9231C32.668 12.9426 32.2021 11.4281 31.1535 10.3796C30.105 9.3311 28.7071 8.74866 26.7266 8.74866C24.0471 8.74866 21.2511 9.68066 18.5716 11.6612C17.6396 9.68066 15.8921 8.74866 13.3291 8.74866C10.7661 8.74866 8.20316 9.68066 5.64019 11.4281L5.40715 10.1466C5.40715 9.79702 5.29063 9.68066 5.05759 9.56414C4.94107 9.44762 4.70802 9.44762 4.47515 9.44762H2.61114C2.0287 9.44762 1.79565 9.68066 1.79565 10.2631V29.602C1.79565 30.1844 2.0287 30.4175 2.61114 30.4175H5.05759C5.64003 30.4175 5.87307 30.1844 5.87307 29.602V13.8746C7.8536 12.7096 9.83397 12.0106 11.931 12.0106C13.0961 12.0106 13.9115 12.3602 14.3775 13.0591C14.8434 13.7581 15.193 14.6901 15.193 16.0882V29.4856C15.193 30.0681 15.426 30.3011 16.0084 30.3011H18.4549C19.0373 30.3011 19.2704 30.0681 19.2704 29.4856V15.1562V14.4572C19.2704 14.2242 19.2704 13.9913 19.2704 13.8748C21.3674 12.5932 23.3478 12.0108 25.3283 12.0108C26.4934 12.0108 27.3088 12.3603 27.7748 13.0593C28.2407 13.7582 28.5902 14.6902 28.5902 16.0883V29.4858C28.5906 30.0679 28.8236 30.3009 29.4061 30.3009Z" fill="url(#paint2_linear_1_166)"/>
<path d="M92.8982 45.7954C80.1998 51.1543 66.3363 53.8338 53.7545 53.8338C35.1146 53.8338 17.0572 48.7079 2.4949 40.2035C2.26186 40.087 2.02898 39.9705 1.79594 39.9705C0.980454 39.9705 0.51437 40.9025 1.33002 41.7179C14.844 53.9504 32.7848 61.2899 52.5896 61.2899C66.8026 61.2899 83.2289 56.8629 94.5293 48.475C96.5097 47.0769 94.8785 44.9799 92.8982 45.7954Z" fill="url(#paint3_linear_1_166)"/>
<path d="M92.5485 13.9909C93.597 12.8259 95.228 12.2434 97.5579 12.2434C98.7229 12.2434 99.8878 12.36 100.936 12.7094C101.286 12.8259 101.402 12.8259 101.635 12.8259C101.985 12.8259 102.218 12.5928 102.218 12.0104V10.8454C102.218 10.4958 102.101 10.1464 101.985 10.0299C101.868 9.91335 101.635 9.68031 101.402 9.56395C99.8878 9.21439 98.3732 8.86499 96.9753 8.86499C93.7133 8.86499 91.2669 9.79699 89.4029 11.7775C87.6554 13.6415 86.7234 16.4375 86.7234 19.9325C86.7234 23.4275 87.5389 26.107 89.2864 27.971C91.0338 29.835 93.4803 30.767 96.7422 30.767C98.4897 30.767 100.121 30.534 101.402 29.9515C101.752 29.835 101.985 29.7185 102.101 29.4856C102.218 29.3691 102.218 29.0197 102.218 28.6701V27.5051C102.218 26.9226 101.985 26.6896 101.635 26.6896C101.519 26.6896 101.286 26.6896 101.053 26.8061C99.7713 27.1557 98.4899 27.3886 97.3248 27.3886C95.1114 27.3886 93.4803 26.8061 92.4319 25.6411C91.3834 24.476 90.9175 22.612 90.9175 20.1656V19.5831C91.034 17.02 91.4999 15.156 92.5485 13.9909Z" fill="url(#paint4_linear_1_166)"/>
<path d="M97.7912 56.7461C103.849 51.6202 105.48 41.0188 104.199 39.3878C103.616 38.6888 100.82 37.9899 97.3253 37.9899C93.5972 37.9899 89.1703 38.8054 85.7918 41.1353C84.7433 41.8342 84.9763 42.7662 86.0249 42.6497C89.6364 42.1838 97.7912 41.2518 99.3058 43.1156C100.704 44.9797 97.6748 52.6686 96.2767 56.047C95.9272 57.0957 96.7427 57.4453 97.7912 56.7461Z" fill="url(#paint5_linear_1_166)"/>
<path d="M81.5979 9.33118H79.1514C78.569 9.33118 78.3359 9.56422 78.3359 10.1467V29.4855C78.3359 30.068 78.569 30.301 79.1514 30.301H81.5979C82.1803 30.301 82.4134 30.068 82.4134 29.4855V10.1467C82.4134 9.68058 82.1803 9.33118 81.5979 9.33118Z" fill="url(#paint6_linear_1_166)"/>
<path d="M82.2969 1.40917C81.8308 0.943247 81.1319 0.710205 80.3164 0.710205C79.5009 0.710205 78.9185 0.943247 78.4524 1.40917C77.9863 1.87509 77.7534 2.45769 77.7534 3.15665C77.7534 3.85562 77.9865 4.55458 78.4524 4.90414C78.9183 5.37006 79.5009 5.60311 80.3164 5.60311C81.1319 5.60311 81.7143 5.37006 82.1804 4.90414C82.6463 4.43822 82.8794 3.85562 82.8794 3.15665C82.8794 2.45769 82.7628 1.75873 82.2969 1.40917Z" fill="url(#paint7_linear_1_166)"/>
<defs>
<linearGradient id="paint0_linear_1_166" x1="23.345" y1="63.7976" x2="89.5037" y2="-2.36109" gradientUnits="userSpaceOnUse">
<stop stop-color="#0C6CB3"/>
<stop offset="0.2911" stop-color="#1E84C4"/>
<stop offset="0.8873" stop-color="#4CC0EF"/>
<stop offset="1" stop-color="#4CC0EF"/>
</linearGradient>
<linearGradient id="paint1_linear_1_166" x1="13.063" y1="53.5158" x2="79.2217" y2="-12.6429" gradientUnits="userSpaceOnUse">
<stop stop-color="#0C6CB3"/>
<stop offset="0.2911" stop-color="#1E84C4"/>
<stop offset="0.8873" stop-color="#4CC0EF"/>
<stop offset="1" stop-color="#4CC0EF"/>
</linearGradient>
<linearGradient id="paint2_linear_1_166" x1="-1.67293" y1="38.7798" x2="64.4857" y2="-27.3789" gradientUnits="userSpaceOnUse">
<stop stop-color="#0C6CB3"/>
<stop offset="0.2911" stop-color="#1E84C4"/>
<stop offset="0.8873" stop-color="#4CC0EF"/>
<stop offset="1" stop-color="#4CC0EF"/>
</linearGradient>
<linearGradient id="paint3_linear_1_166" x1="25.9168" y1="66.3036" x2="92.0739" y2="0.14643" gradientUnits="userSpaceOnUse">
<stop stop-color="#0C6CB3"/>
<stop offset="0.2911" stop-color="#1E84C4"/>
<stop offset="0.8873" stop-color="#4CC0EF"/>
<stop offset="1" stop-color="#4CC0EF"/>
</linearGradient>
<linearGradient id="paint4_linear_1_166" x1="37.9756" y1="78.4285" x2="104.134" y2="12.2698" gradientUnits="userSpaceOnUse">
<stop stop-color="#0C6CB3"/>
<stop offset="0.2911" stop-color="#1E84C4"/>
<stop offset="0.8873" stop-color="#4CC0EF"/>
<stop offset="1" stop-color="#4CC0EF"/>
</linearGradient>
<linearGradient id="paint5_linear_1_166" x1="50.1413" y1="90.594" x2="116.3" y2="24.4353" gradientUnits="userSpaceOnUse">
<stop stop-color="#0C6CB3"/>
<stop offset="0.2911" stop-color="#1E84C4"/>
<stop offset="0.8873" stop-color="#4CC0EF"/>
<stop offset="1" stop-color="#4CC0EF"/>
</linearGradient>
<linearGradient id="paint6_linear_1_166" x1="29.8686" y1="70.3213" x2="96.0272" y2="4.16263" gradientUnits="userSpaceOnUse">
<stop stop-color="#0C6CB3"/>
<stop offset="0.2911" stop-color="#1E84C4"/>
<stop offset="0.8873" stop-color="#4CC0EF"/>
<stop offset="1" stop-color="#4CC0EF"/>
</linearGradient>
<linearGradient id="paint7_linear_1_166" x1="21.5108" y1="61.9635" x2="87.6695" y2="-4.19527" gradientUnits="userSpaceOnUse">
<stop stop-color="#0C6CB3"/>
<stop offset="0.2911" stop-color="#1E84C4"/>
<stop offset="0.8873" stop-color="#4CC0EF"/>
<stop offset="1" stop-color="#4CC0EF"/>
</linearGradient>
</defs>
</svg>
