<svg width="80" height="80" viewBox="0 0 80 80" fill="none" xmlns="http://www.w3.org/2000/svg">
<g clip-path="url(#clip0_1_153)">
<rect width="80" height="80" rx="8" fill="#FB4F66"/>
<path d="M54.2188 25C55.3646 24.7917 55.9896 25.3125 56.0938 26.5625V45.625C56.0938 47.1875 53.7501 48.2292 49.0626 48.75C40.1563 50.1563 41.5626 65.1563 53.7501 61.0938C58.4376 59.375 59.2188 54.8438 59.2188 50.3125V13.75C59.2188 13.75 59.2188 10.625 56.5626 11.4063L30.0001 16.875C30.0001 16.875 27.9688 17.1875 27.9688 19.6875V51.4063C27.9688 52.9688 25.6251 54.0104 20.9376 54.5313C12.0313 55.9375 13.4376 70.9375 25.6251 66.875C30.3126 65.1563 31.0938 60.625 31.0938 56.0938V31.0938C31.0938 30.1563 31.6146 29.5834 32.6563 29.375" fill="white"/>
</g>
<defs>
<clipPath id="clip0_1_153">
<rect width="80" height="80" rx="8" fill="white"/>
</clipPath>
</defs>
</svg>
