<svg width="105" height="64" viewBox="0 0 105 64" fill="none" xmlns="http://www.w3.org/2000/svg">
<path fill-rule="evenodd" clip-rule="evenodd" d="M18.3723 23.6596C17.0865 23.6084 15.8711 23.6396 14.7252 23.7456V49.456L18.3723 49.4525V23.6596ZM19.8744 49.4517L23.5232 49.4508V14.9589C22.0863 16.3845 20.8648 18.0969 19.8744 20.0334V49.4517ZM25.0245 49.4499L28.6724 49.4482V11.5273C27.3545 12.0615 26.1373 12.7713 25.0245 13.6366V49.4499ZM30.1736 49.4473L33.607 49.4447V10.4204C32.4046 10.496 31.2605 10.6958 30.1736 11.0086V49.4473ZM35.1091 49.4438L39.1854 49.4412V10.9061C37.7684 10.5872 36.4079 10.4204 35.1091 10.3909V49.4438ZM41.2713 49.4404L43.1001 49.4386C44.2938 37.1099 45.0843 24.7803 43.9063 12.4525C42.8047 11.9834 41.7326 11.5985 40.6875 11.2944C39.7675 26.1556 40.4104 38.7319 41.2713 49.4404ZM45.4084 49.4378L94.7589 49.4082C114.184 39.7145 102.656 16.474 85.7471 21.9429C85.9356 -1.22108 53.6956 -6.49625 45.4084 11.9078V49.4378ZM13.2231 23.9315C11.82 24.1522 10.5334 24.4902 9.36053 24.9263V49.1537C10.0495 49.304 10.7749 49.4074 11.5359 49.4577L13.2231 49.4569V23.9315ZM7.85843 25.5666C6.44841 26.2503 5.23474 27.0878 4.21133 28.0374V46.7168C5.24517 47.5621 6.46231 48.2536 7.85843 48.7349V25.5666ZM2.70923 29.6837C-0.977833 34.4558 -0.827536 40.9942 2.70923 45.2312V29.6837Z" fill="#FF6600"/>
<mask id="mask0_1_159" style="mask-type:luminance" maskUnits="userSpaceOnUse" x="4" y="52" width="94" height="12">
<path d="M4.79346 52.8894H97.314V63.1869H4.79346V52.8894Z" fill="white"/>
</mask>
<g mask="url(#mask0_1_159)">
<path fill-rule="evenodd" clip-rule="evenodd" d="M11.4351 60.055C11.4351 60.571 11.3396 61.0254 11.1476 61.4172C10.9564 61.8064 10.6932 62.1331 10.3639 62.3929C10.0338 62.6552 9.65068 62.8498 9.20934 62.981C8.76801 63.1139 8.2954 63.1791 7.79498 63.1791C7.45443 63.1791 7.13819 63.153 6.84716 63.0957C6.55699 63.0418 6.29983 62.9741 6.07656 62.8959C5.85328 62.816 5.6665 62.7352 5.51707 62.6474C5.36938 62.5614 5.25991 62.4867 5.19476 62.4189C5.12786 62.3538 5.08008 62.2582 5.05488 62.1357C5.02622 62.0115 5.01318 61.8316 5.01318 61.5988C5.01318 61.4407 5.0184 61.3112 5.02622 61.2044C5.03664 61.0984 5.05488 61.0098 5.07487 60.9446C5.09832 60.8803 5.1296 60.8334 5.16869 60.8047C5.20518 60.7761 5.24949 60.763 5.30075 60.763C5.37112 60.763 5.47189 60.8047 5.60221 60.8882C5.72992 60.9698 5.89585 61.0645 6.10088 61.1644C6.30244 61.2669 6.54396 61.359 6.82457 61.4424C7.10692 61.5258 7.43097 61.5675 7.8028 61.5675C8.04693 61.5675 8.26412 61.5389 8.45612 61.4824C8.64899 61.4224 8.81145 61.339 8.94697 61.2331C9.07903 61.1262 9.18328 60.9967 9.25278 60.8386C9.32576 60.6805 9.35964 60.5059 9.35964 60.3148C9.35964 60.0915 9.29969 59.8995 9.17807 59.7405C9.05557 59.5798 8.89832 59.4373 8.70372 59.3157C8.50911 59.1906 8.28584 59.0742 8.03824 58.9647C7.78977 58.8561 7.53262 58.7397 7.27025 58.6198C7.00701 58.4982 6.74899 58.3574 6.50226 58.2045C6.25292 58.049 6.03399 57.8648 5.83591 57.6494C5.6413 57.4339 5.48232 57.1794 5.36069 56.8866C5.23906 56.5903 5.17912 56.2402 5.17912 55.8276C5.17912 55.3584 5.26686 54.9432 5.44149 54.5844C5.61524 54.229 5.85068 53.931 6.14953 53.6973C6.44579 53.461 6.7959 53.2847 7.19814 53.1683C7.60038 53.051 8.02781 52.9945 8.48044 52.9945C8.71067 52.9945 8.94437 53.0093 9.17807 53.0458C9.4109 53.0823 9.62896 53.1292 9.83138 53.1917C10.0338 53.2499 10.2128 53.3212 10.3726 53.3967C10.5299 53.4715 10.6333 53.5366 10.6828 53.5861C10.7349 53.6374 10.7688 53.6782 10.7862 53.7156C10.8044 53.7521 10.8183 53.799 10.8305 53.8555C10.8444 53.9154 10.8548 53.9884 10.8591 54.0761C10.8617 54.1647 10.8643 54.2759 10.8643 54.4089C10.8643 54.5539 10.8617 54.6773 10.8548 54.779C10.8461 54.8806 10.8331 54.964 10.8157 55.0309C10.7992 55.0952 10.774 55.1456 10.7401 55.1743C10.7071 55.2047 10.6619 55.2203 10.6072 55.2203C10.5507 55.2203 10.4621 55.1847 10.3405 55.1143C10.218 55.0439 10.0703 54.9666 9.89133 54.8832C9.71497 54.7981 9.51081 54.7225 9.27624 54.6547C9.04254 54.5844 8.78886 54.5513 8.50911 54.5513C8.29018 54.5513 8.10079 54.5774 7.94007 54.6313C7.77674 54.6834 7.64121 54.759 7.53262 54.8519C7.42489 54.9458 7.34322 55.057 7.28849 55.1899C7.23637 55.3219 7.20856 55.4618 7.20856 55.6069C7.20856 55.825 7.26851 56.0135 7.38753 56.1759C7.50742 56.3341 7.66728 56.4765 7.86709 56.6008C8.06691 56.725 8.29279 56.8423 8.54734 56.9491C8.80189 57.0577 9.05818 57.1742 9.32315 57.2967C9.58552 57.4183 9.84528 57.5564 10.099 57.7085C10.3509 57.8648 10.5768 58.049 10.774 58.2636C10.9712 58.4799 11.1328 58.7345 11.2536 59.0246C11.3752 59.3183 11.4351 59.6606 11.4351 60.055ZM21.8117 57.9734C21.8117 58.7883 21.7109 59.5181 21.5085 60.161C21.3061 60.8047 21.0055 61.3521 20.6041 61.8012C20.2036 62.2478 19.7076 62.5901 19.1185 62.8264C18.5278 63.0627 17.8449 63.1791 17.0691 63.1791C16.3037 63.1791 15.6365 63.0809 15.0657 62.8811C14.4949 62.6813 14.0197 62.3746 13.6409 61.9646C13.2595 61.5519 12.9737 61.0306 12.7843 60.3973C12.5958 59.764 12.4994 59.0142 12.4994 58.148C12.4994 57.3514 12.6002 56.6347 12.8052 55.9987C13.0076 55.3628 13.3091 54.8233 13.7096 54.3776C14.1083 53.931 14.6035 53.5887 15.1952 53.3498C15.7842 53.1109 16.4723 52.9945 17.2507 52.9945C17.9978 52.9945 18.6555 53.0927 19.2254 53.289C19.7936 53.4871 20.2705 53.7912 20.6519 54.2012C21.0359 54.6139 21.3243 55.1299 21.5189 55.7581C21.7162 56.3836 21.8117 57.1203 21.8117 57.9734ZM19.7154 58.0803C19.7154 57.5616 19.6737 57.0916 19.5937 56.6685C19.513 56.2454 19.3731 55.8823 19.1785 55.5817C18.9839 55.2794 18.7241 55.0465 18.4001 54.8832C18.0751 54.7173 17.6712 54.6339 17.1838 54.6339C16.6929 54.6339 16.2803 54.7277 15.9501 54.9119C15.6235 55.0987 15.3559 55.3445 15.1543 55.6538C14.951 55.9631 14.8086 56.3236 14.7226 56.7354C14.64 57.1516 14.5992 57.5868 14.5992 58.049C14.5992 58.5859 14.64 59.0689 14.7208 59.4972C14.8007 59.9247 14.938 60.2913 15.13 60.5945C15.322 60.8986 15.5818 61.1314 15.9058 61.2904C16.2307 61.4511 16.6382 61.531 17.1308 61.531C17.6216 61.531 18.0317 61.4381 18.361 61.2565C18.6902 61.0749 18.9578 60.8256 19.1602 60.512C19.3627 60.1975 19.5051 59.8317 19.5885 59.4138C19.6737 58.996 19.7154 58.5503 19.7154 58.0803ZM31.522 59.3417C31.522 59.9429 31.4342 60.4833 31.2552 60.9603C31.0789 61.4355 30.8165 61.8403 30.4742 62.1696C30.1285 62.4988 29.7036 62.7482 29.1945 62.9219C28.6889 63.0922 28.1051 63.1791 27.4483 63.1791C26.828 63.1791 26.2729 63.1026 25.782 62.948C25.2894 62.7925 24.8741 62.5588 24.5344 62.2452C24.1965 61.9307 23.9376 61.5389 23.756 61.0697C23.5779 60.6023 23.4858 60.0524 23.4858 59.4243V53.4402C23.4858 53.3915 23.5015 53.3438 23.5327 53.3055C23.5614 53.2638 23.6153 53.2308 23.6961 53.2074C23.7743 53.1813 23.8777 53.1604 24.0019 53.1448C24.1296 53.1292 24.2929 53.1205 24.4901 53.1205C24.6821 53.1205 24.8429 53.1292 24.9688 53.1448C25.0948 53.1604 25.1956 53.1813 25.2746 53.2074C25.3493 53.2308 25.4041 53.2638 25.4371 53.3055C25.4692 53.3438 25.4875 53.3915 25.4875 53.4402V59.2505C25.4875 59.6397 25.5335 59.9768 25.6291 60.2652C25.7255 60.5502 25.8654 60.7891 26.0444 60.9759C26.2233 61.1627 26.4388 61.3034 26.6916 61.3964C26.9427 61.4893 27.2224 61.5389 27.5308 61.5389C27.8453 61.5389 28.1251 61.4893 28.3744 61.3938C28.6237 61.2982 28.834 61.1575 29.0051 60.9698C29.1789 60.7865 29.3109 60.558 29.4048 60.2887C29.4977 60.015 29.5446 59.7075 29.5446 59.3643V53.4402C29.5446 53.3915 29.5603 53.3438 29.5924 53.3055C29.6202 53.2638 29.6758 53.2308 29.7505 53.2074C29.8279 53.1813 29.9286 53.1604 30.0589 53.1448C30.1884 53.1292 30.3491 53.1205 30.5411 53.1205C30.7331 53.1205 30.8912 53.1292 31.0163 53.1448C31.1406 53.1604 31.2396 53.1813 31.3169 53.2074C31.3925 53.2308 31.4472 53.2638 31.475 53.3055C31.5063 53.3438 31.522 53.3915 31.522 53.4402V59.3417ZM41.7691 62.3042C41.7691 62.4215 41.7482 62.5249 41.7092 62.6187C41.6683 62.7091 41.6136 62.7847 41.5467 62.8446C41.4763 62.9063 41.3955 62.9506 41.3026 62.9793C41.2087 63.0053 41.1132 63.021 41.0167 63.021H40.1662C39.9899 63.021 39.8335 63.0027 39.7066 62.9662C39.5763 62.9324 39.4573 62.8681 39.3478 62.7742C39.2392 62.6813 39.1333 62.5536 39.0316 62.3929C38.9308 62.2347 38.8162 62.0262 38.6928 61.7726L36.242 57.1742C36.1021 56.8996 35.957 56.606 35.8085 56.2898C35.6634 55.9735 35.5322 55.6642 35.414 55.3662H35.3993C35.4193 55.7294 35.4349 56.0925 35.4453 56.4557C35.4531 56.818 35.4584 57.1924 35.4584 57.5764V62.7247C35.4584 62.7743 35.4453 62.8212 35.4167 62.8603C35.3915 62.9011 35.3419 62.935 35.2742 62.9628C35.2047 62.9914 35.1135 63.0132 34.997 63.0279C34.8798 63.0444 34.7295 63.0523 34.5479 63.0523C34.3715 63.0523 34.2238 63.0444 34.1065 63.0279C33.9901 63.0132 33.8989 62.9914 33.832 62.9628C33.7669 62.935 33.7226 62.9011 33.6974 62.8603C33.6704 62.8212 33.6574 62.7743 33.6574 62.7247V53.8815C33.6574 53.6452 33.7278 53.4662 33.8676 53.3472C34.0058 53.2273 34.1769 53.1683 34.3793 53.1683H35.4531C35.6451 53.1683 35.8059 53.1839 35.9388 53.2178C36.0708 53.2499 36.1881 53.3055 36.2924 53.3811C36.3949 53.455 36.4939 53.5627 36.5851 53.6973C36.6755 53.8294 36.7693 53.9962 36.8649 54.1934L38.7823 57.7892C38.8943 58.0073 39.0029 58.2228 39.1124 58.4321C39.221 58.6432 39.3279 58.8535 39.4286 59.0637C39.5303 59.274 39.6284 59.4816 39.7249 59.6832C39.8204 59.8865 39.9143 60.0889 40.0046 60.2913H40.0124C39.9968 59.9351 39.9864 59.5668 39.9786 59.1801C39.9716 58.7962 39.9681 58.4278 39.9681 58.0803V53.4636C39.9681 53.415 39.9838 53.3681 40.0124 53.3264C40.0437 53.2873 40.0958 53.2499 40.1662 53.2204C40.2357 53.1917 40.3287 53.1683 40.446 53.1578C40.5624 53.1448 40.7135 53.137 40.8951 53.137C41.0689 53.137 41.2113 53.1448 41.3278 53.1578C41.445 53.1683 41.5354 53.1917 41.5979 53.2204C41.6631 53.2499 41.7074 53.2873 41.73 53.3264C41.7561 53.3681 41.7691 53.415 41.7691 53.4636V62.3042ZM52.0866 57.943C52.0866 58.8431 51.9667 59.6163 51.7313 60.2574C51.495 60.8986 51.1579 61.4224 50.7166 61.8273C50.2761 62.2321 49.7409 62.5301 49.1102 62.7195C48.4769 62.9089 47.728 63.0053 46.8549 63.0053H44.5066C44.3381 63.0053 44.1982 62.9558 44.0835 62.8577C43.9697 62.7586 43.9124 62.5979 43.9124 62.3746V53.799C43.9124 53.5757 43.9697 53.415 44.0835 53.3151C44.1982 53.2178 44.3381 53.1683 44.5066 53.1683H47.0295C47.9061 53.1683 48.6506 53.2716 49.2605 53.4767C49.8704 53.6817 50.3873 53.9858 50.8043 54.388C51.2222 54.7894 51.5419 55.2881 51.7599 55.8823C51.9771 56.4739 52.0866 57.162 52.0866 57.943ZM50.0181 58.0099C50.0181 57.5425 49.9642 57.1125 49.8547 56.7102C49.7461 56.3106 49.5698 55.9631 49.3283 55.6686C49.0902 55.3767 48.7809 55.1456 48.4022 54.9823C48.0251 54.8154 47.5299 54.7329 46.9148 54.7329H45.9053V61.4242H46.9461C47.4934 61.4242 47.9556 61.3521 48.33 61.2113C48.7054 61.0697 49.0164 60.8543 49.2683 60.5684C49.5203 60.2835 49.707 59.9247 49.8313 59.4999C49.9564 59.0742 50.0181 58.5781 50.0181 58.0099ZM60.5302 61.5154C60.5302 61.6431 60.5276 61.7482 60.5198 61.8377C60.5119 61.9246 60.4989 62.0037 60.4859 62.0662C60.4702 62.1305 60.4494 62.1844 60.4242 62.2295C60.3981 62.2764 60.359 62.3277 60.3026 62.385C60.2478 62.4441 60.1384 62.5171 59.9803 62.6101C59.8195 62.7013 59.6249 62.7899 59.3947 62.8733C59.1636 62.9558 58.9004 63.0262 58.6024 63.0809C58.3061 63.1374 57.9873 63.1652 57.6433 63.1652C56.9674 63.1652 56.3601 63.0601 55.818 62.8516C55.2759 62.6448 54.8137 62.3355 54.4349 61.9229C54.0535 61.5076 53.7625 60.9941 53.56 60.3738C53.3576 59.7553 53.2542 59.0377 53.2542 58.2149C53.2542 57.3792 53.3654 56.6373 53.5887 55.9892C53.812 55.3402 54.1239 54.7955 54.5252 54.3541C54.9249 53.9128 55.4053 53.5783 55.9665 53.3498C56.526 53.1205 57.1411 53.0075 57.8161 53.0075C58.0907 53.0075 58.353 53.031 58.6076 53.077C58.8613 53.1205 59.095 53.1813 59.3113 53.256C59.5259 53.329 59.7205 53.415 59.8916 53.5097C60.0628 53.607 60.1853 53.6895 60.2522 53.7573C60.3225 53.8242 60.3695 53.8815 60.3929 53.9276C60.419 53.9753 60.439 54.0318 60.4546 54.1022C60.4702 54.1752 60.4807 54.2577 60.4885 54.3541C60.4972 54.4497 60.4989 54.5696 60.4989 54.7121C60.4989 54.8624 60.4937 54.9927 60.4859 55.0987C60.4754 55.2047 60.4572 55.2898 60.4329 55.3584C60.4059 55.4227 60.3773 55.4722 60.3408 55.5009C60.3043 55.5322 60.2661 55.5478 60.22 55.5478C60.1436 55.5478 60.0471 55.5035 59.9307 55.4149C59.8143 55.3272 59.664 55.2255 59.4764 55.1169C59.2931 55.0074 59.0715 54.9093 58.8178 54.8207C58.5607 54.7329 58.2549 54.6886 57.8987 54.6886C57.5095 54.6886 57.162 54.7694 56.8562 54.9275C56.5469 55.0882 56.288 55.3167 56.0725 55.6121C55.8571 55.9084 55.6937 56.2663 55.5817 56.6868C55.4705 57.1099 55.4131 57.5816 55.4131 58.109C55.4131 58.6876 55.4731 59.188 55.5921 59.6111C55.7111 60.0333 55.8831 60.3817 56.1029 60.6562C56.3236 60.929 56.5886 61.134 56.8996 61.2695C57.2115 61.4016 57.5642 61.4694 57.9534 61.4694C58.3087 61.4694 58.6163 61.4277 58.8717 61.3443C59.1315 61.2617 59.3547 61.1679 59.5389 61.0671C59.7231 60.9655 59.8769 60.8751 59.9968 60.7917C60.1149 60.7109 60.2061 60.6727 60.273 60.6727C60.3225 60.6727 60.3642 60.6805 60.3929 60.7005C60.4242 60.7213 60.4494 60.763 60.4702 60.8221C60.4911 60.8855 60.5041 60.9681 60.5145 61.0775C60.5258 61.1861 60.5302 61.3312 60.5302 61.5154ZM67.3735 62.1696C67.3735 62.3199 67.3674 62.4502 67.3552 62.5536C67.3413 62.657 67.3231 62.743 67.2979 62.8107C67.2718 62.8811 67.2406 62.9298 67.2015 62.9584C67.165 62.9897 67.1189 63.0053 67.0694 63.0053H62.5622C62.3937 63.0053 62.253 62.9558 62.1391 62.8577C62.0245 62.7586 61.968 62.5979 61.968 62.3746V53.4402C61.968 53.3915 61.9836 53.3438 62.0175 53.3055C62.0505 53.2638 62.1053 53.2308 62.1808 53.2074C62.2556 53.1813 62.3607 53.1604 62.4901 53.1448C62.6196 53.1292 62.7803 53.1205 62.9723 53.1205C63.1695 53.1205 63.3302 53.1292 63.4571 53.1448C63.5839 53.1604 63.6856 53.1813 63.7611 53.2074C63.8385 53.2308 63.8932 53.2638 63.9245 53.3055C63.9583 53.3438 63.9766 53.3915 63.9766 53.4402V61.3547H67.0694C67.1189 61.3547 67.165 61.3703 67.2015 61.3964C67.2406 61.4242 67.2718 61.4711 67.2979 61.5336C67.3231 61.5988 67.3413 61.6822 67.3552 61.7856C67.3674 61.8898 67.3735 62.0167 67.3735 62.1696ZM77.1272 57.9734C77.1272 58.7883 77.0255 59.5181 76.8231 60.161C76.6215 60.8047 76.3201 61.3521 75.9178 61.8012C75.5191 62.2478 75.0221 62.5901 74.4331 62.8264C73.8423 63.0627 73.1595 63.1791 72.3837 63.1791C71.6183 63.1791 70.9511 63.0809 70.3803 62.8811C69.8104 62.6813 69.3343 62.3746 68.9555 61.9646C68.5741 61.5519 68.2892 61.0306 68.0998 60.3973C67.9113 59.764 67.8139 59.0142 67.8139 58.148C67.8139 57.3514 67.9156 56.6347 68.1198 55.9987C68.3222 55.3628 68.6245 54.8233 69.0233 54.3776C69.4229 53.931 69.9181 53.5887 70.5097 53.3498C71.0988 53.1109 71.7868 52.9945 72.5652 52.9945C73.3133 52.9945 73.9692 53.0927 74.54 53.289C75.1081 53.4871 75.586 53.7912 75.9674 54.2012C76.3513 54.6139 76.6389 55.1299 76.8335 55.7581C77.0307 56.3836 77.1272 57.1203 77.1272 57.9734ZM75.03 58.0803C75.03 57.5616 74.9891 57.0916 74.9083 56.6685C74.8275 56.2454 74.6877 55.8823 74.493 55.5817C74.2984 55.2794 74.0387 55.0465 73.7146 54.8832C73.3906 54.7173 72.9857 54.6339 72.4984 54.6339C72.0075 54.6339 71.5948 54.7277 71.2656 54.9119C70.938 55.0987 70.6705 55.3445 70.4689 55.6538C70.2665 55.9631 70.1231 56.3236 70.038 56.7354C69.9546 57.1516 69.9129 57.5868 69.9129 58.049C69.9129 58.5859 69.9546 59.0689 70.0354 59.4972C70.1162 59.9247 70.2535 60.2913 70.4454 60.5945C70.6375 60.8986 70.8963 61.1314 71.2213 61.2904C71.5453 61.4511 71.9528 61.531 72.4454 61.531C72.9362 61.531 73.3463 61.4381 73.6755 61.2565C74.0057 61.0749 74.2724 60.8256 74.4748 60.512C74.6772 60.1975 74.8197 59.8317 74.9031 59.4138C74.9891 58.996 75.03 58.5503 75.03 58.0803ZM86.8365 59.3417C86.8365 59.9429 86.7488 60.4833 86.5698 60.9603C86.3935 61.4355 86.1311 61.8403 85.7888 62.1696C85.4439 62.4988 85.0182 62.7482 84.5091 62.9219C84.0035 63.0922 83.4197 63.1791 82.7629 63.1791C82.1426 63.1791 81.5874 63.1026 81.0983 62.948C80.604 62.7925 80.1896 62.5588 79.849 62.2452C79.5128 61.9307 79.2522 61.5389 79.0706 61.0697C78.8925 60.6023 78.8004 60.0524 78.8004 59.4243V53.4402C78.8004 53.3915 78.816 53.3438 78.8473 53.3055C78.876 53.2638 78.9307 53.2308 79.0107 53.2074C79.0888 53.1813 79.1922 53.1604 79.3182 53.1448C79.4442 53.1292 79.6075 53.1205 79.8047 53.1205C79.9967 53.1205 80.1574 53.1292 80.2825 53.1448C80.4094 53.1604 80.511 53.1813 80.5883 53.2074C80.6639 53.2308 80.7178 53.2638 80.7517 53.3055C80.7829 53.3438 80.8012 53.3915 80.8012 53.4402V59.2505C80.8012 59.6397 80.8481 59.9768 80.9437 60.2652C81.0401 60.5502 81.1808 60.7891 81.3589 60.9759C81.5379 61.1627 81.7534 61.3034 82.0062 61.3964C82.2572 61.4893 82.537 61.5389 82.8463 61.5389C83.1599 61.5389 83.4405 61.4893 83.689 61.3938C83.9383 61.2982 84.1486 61.1575 84.3197 60.9698C84.4935 60.7865 84.6264 60.558 84.7193 60.2887C84.814 60.015 84.8601 59.7075 84.8601 59.3643V53.4402C84.8601 53.3915 84.8748 53.3438 84.907 53.3055C84.9348 53.2638 84.9904 53.2308 85.0642 53.2074C85.1424 53.1813 85.2441 53.1604 85.3735 53.1448C85.503 53.1292 85.6637 53.1205 85.8557 53.1205C86.0477 53.1205 86.2067 53.1292 86.3309 53.1448C86.4551 53.1604 86.5542 53.1813 86.6315 53.2074C86.7071 53.2308 86.7618 53.2638 86.7905 53.3055C86.8218 53.3438 86.8365 53.3915 86.8365 53.4402V59.3417ZM97.1462 57.943C97.1462 58.8431 97.0281 59.6163 96.7909 60.2574C96.5555 60.8986 96.2175 61.4224 95.777 61.8273C95.3348 62.2321 94.8005 62.5301 94.1698 62.7195C93.5365 62.9089 92.7867 63.0053 91.9154 63.0053H89.5679C89.3977 63.0053 89.2578 62.9558 89.144 62.8577C89.0302 62.7586 88.9728 62.5979 88.9728 62.3746V53.799C88.9728 53.5757 89.0302 53.415 89.144 53.3151C89.2578 53.2178 89.3977 53.1683 89.5679 53.1683H92.0891C92.9657 53.1683 93.7111 53.2716 94.3201 53.4767C94.93 53.6817 95.4469 53.9858 95.8648 54.388C96.2827 54.7894 96.6015 55.2881 96.8196 55.8823C97.0376 56.4739 97.1462 57.162 97.1462 57.943ZM95.0786 58.0099C95.0786 57.5425 95.0238 57.1125 94.9152 56.7102C94.8058 56.3106 94.6294 55.9631 94.3879 55.6686C94.149 55.3767 93.8406 55.1456 93.4618 54.9823C93.0856 54.8154 92.5895 54.7329 91.9744 54.7329H90.9667V61.4242H92.0057C92.553 61.4242 93.0152 61.3521 93.3888 61.2113C93.7658 61.0697 94.0769 60.8543 94.3279 60.5684C94.5807 60.2835 94.7667 59.9247 94.8918 59.4999C95.0169 59.0742 95.0786 58.5781 95.0786 58.0099Z" fill="#FF6600"/>
</g>
</svg>
