<svg width="80" height="80" viewBox="0 0 80 80" fill="none" xmlns="http://www.w3.org/2000/svg">
<path d="M40 0C17.9086 0 0 17.9086 0 40C0 62.0914 17.9086 80 40 80C62.0914 80 80 62.0914 80 40C80 17.9086 62.0914 0 40 0ZM57.4085 58.0509C56.8999 58.9212 55.9846 59.4064 55.0444 59.4066C54.5756 59.4066 54.1008 59.286 53.6668 59.0325C46.4787 54.8317 38.1748 54.1566 32.4729 54.33C26.157 54.5221 21.5252 55.7689 21.4791 55.7816C20.0232 56.1793 18.5186 55.3226 18.1192 53.8668C17.72 52.4112 18.5738 50.9076 20.029 50.5067C20.2378 50.4492 25.222 49.0954 32.1531 48.8668C36.2356 48.7321 40.1659 49.0167 43.8332 49.7124C48.4781 50.5935 52.7152 52.1402 56.427 54.3094C57.7314 55.0715 58.1707 56.7469 57.4085 58.0509ZM62.4938 47.4893C61.8914 48.5202 60.8072 49.0949 59.6934 49.0951C59.1382 49.0951 58.5757 48.9523 58.0616 48.6519C49.5474 43.6759 39.7108 42.8765 32.9571 43.0818C25.4755 43.3094 19.989 44.7863 19.9345 44.8013C18.2103 45.2718 16.4277 44.2577 15.9547 42.5333C15.4817 40.8089 16.4932 39.028 18.2169 38.553C18.4642 38.4849 24.368 36.8812 32.5781 36.6105C37.4143 36.4511 42.0697 36.788 46.4136 37.6121C51.9157 38.6559 56.9345 40.4879 61.3312 43.0573C62.8764 43.96 63.3968 45.9445 62.4938 47.4893ZM65.6199 37.8861C64.9388 37.8861 64.2489 37.711 63.6183 37.3425C43.3762 25.5127 17.1184 32.5455 16.8556 32.6181C14.7393 33.2012 12.5515 31.9583 11.9686 29.8422C11.3855 27.7261 12.6284 25.5381 14.7445 24.9552C15.0477 24.8716 22.2895 22.9046 32.36 22.5726C38.2924 22.3773 44.0025 22.7903 49.3308 23.801C56.0796 25.0813 62.236 27.3284 67.6288 30.4801C69.5238 31.5876 70.1623 34.0215 69.0548 35.9165C68.3159 37.1811 66.9861 37.8861 65.6199 37.8861Z" fill="#00D95F"/>
</svg>
