<svg width="123" height="62" viewBox="0 0 123 62" fill="none" xmlns="http://www.w3.org/2000/svg">
<path d="M50.8242 1H50.8914C51.4037 1.59406 51.9829 2.12023 52.5287 2.68883L56.2399 6.43989V6.50778C54.4432 8.31542 52.6546 10.14 50.8578 11.9477C49.0526 10.1315 47.2557 8.30693 45.4505 6.49081C45.543 6.31259 45.7192 6.19378 45.8535 6.0495C47.5076 4.36068 49.1869 2.69731 50.8242 1ZM61.6556 1H61.7228C61.7733 1.07638 61.8235 1.14427 61.8907 1.21216C63.6287 2.95191 65.3418 4.71711 67.0965 6.44837C67.0545 6.55021 66.9621 6.6181 66.8866 6.69448C65.1487 8.44272 63.4188 10.1994 61.6808 11.9477C59.8671 10.14 58.0871 8.29844 56.2651 6.49929C58.0283 4.64074 59.8839 2.85007 61.6556 1ZM72.487 1H72.5541C72.89 1.40736 73.2846 1.7553 73.6457 2.1372C75.0059 3.51202 76.3579 4.87836 77.7179 6.25318C77.7853 6.32956 77.8944 6.39745 77.9194 6.50778C76.0974 8.29844 74.3342 10.157 72.5038 11.9477L67.34 6.72843C67.256 6.63508 67.1468 6.56718 67.1049 6.44837C68.0201 5.5488 68.9101 4.62376 69.8169 3.7157C70.7069 2.80764 71.6137 1.92504 72.487 1ZM56.3406 17.3366C58.1123 15.546 59.8923 13.7553 61.664 11.9562L61.7394 11.9901C63.5194 13.7977 65.2995 15.6054 67.0963 17.396C67.0377 17.5318 66.9117 17.6082 66.8192 17.7185C65.5263 19.017 64.2331 20.3324 62.9401 21.6308C62.5202 22.0382 62.1172 22.4965 61.6892 22.8784C61.0762 22.3182 60.5137 21.6902 59.9174 21.1132C58.7084 19.8911 57.5078 18.669 56.2903 17.4554C56.3071 17.4215 56.3239 17.3706 56.3406 17.3366ZM0.714355 40.8784H16.8691C16.8775 42.1851 16.8775 43.4922 16.8691 44.7907H11.0504V60.2362C11.042 60.4908 11.0671 60.7454 11.0168 61H6.52468C6.54147 55.5941 6.53308 50.1966 6.53308 44.7907H0.714355V40.8784ZM30.3453 40.8784C31.8567 40.8784 33.368 40.8784 34.8794 40.8868C34.871 47.5912 34.8962 54.2956 34.8626 61H30.3537C30.3285 59.2178 30.3453 57.4356 30.3369 55.6535C30.3453 50.7313 30.3369 45.8091 30.3453 40.8784ZM110.288 40.8784C111.799 40.8784 113.31 40.8784 114.822 40.8868V56.9604C117.45 56.9772 120.086 56.9689 122.714 56.9689V61H110.296C110.271 54.2956 110.296 47.5912 110.288 40.8784ZM67.6674 47.6252C67.214 46.0465 66.3324 44.6124 65.1065 43.5347C63.486 42.0835 61.3701 41.2942 59.2458 41.0141C58.0451 40.8359 56.8276 40.8868 55.6187 40.8784H50.2534C50.1527 40.8784 50.0435 40.8868 49.9427 40.9038C49.9679 47.5488 49.9427 54.1938 49.9595 60.8386C49.9511 60.881 49.9427 60.9574 49.9343 60.9998H57.6925C58.3895 60.8725 59.1032 60.881 59.7916 60.7283C62.1426 60.2954 64.4012 59.1158 65.9378 57.2403C67.0713 55.8824 67.7682 54.1765 67.9949 52.4199C68.1964 50.8161 68.1124 49.1697 67.6674 47.6252ZM62.554 54.3041C61.9914 55.2122 61.1602 55.9335 60.1946 56.3748C59.3214 56.7822 58.3558 56.9689 57.3984 56.9943C56.3909 57.003 55.3833 56.9943 54.3757 57.003C54.3253 55.8741 54.3673 54.7454 54.3505 53.6169C54.3505 50.672 54.3505 47.7357 54.3591 44.7908H57.4742C59.0359 44.8248 60.6228 45.3679 61.7563 46.4881C62.7723 47.4811 63.3433 48.8814 63.4356 50.2986C63.528 51.6818 63.2761 53.116 62.554 54.3041ZM96.316 56.2645C94.4184 51.6054 92.5292 46.9378 90.615 42.2871C90.4385 41.8204 90.2539 41.3451 90.044 40.8953C88.4821 40.8699 86.9206 40.8699 85.3587 40.8953C82.6886 47.3876 80.0186 53.8798 77.3487 60.3635C77.2647 60.5757 77.1639 60.7794 77.122 61H81.9499C82.4285 59.6591 82.9407 58.3352 83.4193 56.9943C86.1565 56.9519 88.9021 56.9859 91.6478 56.9774C91.7905 56.9349 91.8325 57.0879 91.8661 57.1895C92.3279 58.4625 92.7982 59.727 93.2515 61H98.2307C97.6259 59.4045 96.9541 57.843 96.316 56.2645ZM84.6954 53.4215C84.6702 53.2431 84.7793 53.0905 84.8297 52.9293C85.7449 50.5106 86.6855 48.0919 87.5921 45.6733C87.6089 45.6646 87.6425 45.6563 87.6593 45.6563C88.6081 48.2023 89.5737 50.7396 90.5309 53.2855C90.5309 53.3195 90.5393 53.3874 90.5393 53.4215C88.5913 53.4045 86.6433 53.4045 84.6954 53.4215Z" fill="white" stroke="white" stroke-width="0.161675"/>
</svg>
