<svg width="81" height="58" viewBox="0 0 81 58" fill="none" xmlns="http://www.w3.org/2000/svg">
<rect x="20" y="12.5" width="42" height="31" fill="white"/>
<path d="M64.1773 0.5H16.8227C7.53175 0.5 0 7.99001 0 17.2294V40.7706C0 50.01 7.53175 57.5 16.8227 57.5H64.1773C73.4682 57.5 81 50.01 81 40.7706V17.2294C81 7.99001 73.4682 0.5 64.1773 0.5ZM52.8003 30.1454L30.651 40.6507C30.0608 40.9306 29.379 40.5027 29.379 39.8525V18.1852C29.379 17.5258 30.0787 17.0984 30.6701 17.3965L52.8194 28.5585C53.478 28.8903 53.4666 29.8294 52.8003 30.1454Z" fill="#F61C0D"/>
</svg>
